solid CATIA STL
  facet normal  0.000000e+000 -1.000000e+000  -0.000000e+000
    outer loop
      vertex -6.000000e+000  1.700000e+001  3.000000e+000
      vertex -6.000000e+000  1.700000e+001  5.000000e+000
      vertex -1.000000e+001  1.700000e+001  3.000000e+000
    endloop
  endfacet
  facet normal  -0.000000e+000 -1.000000e+000  0.000000e+000
    outer loop
      vertex -1.200000e+001  1.700000e+001  7.000000e+000
      vertex -4.500000e+000  1.700000e+001  1.000000e+001
      vertex -1.700000e+001  1.700000e+001  1.000000e+001
    endloop
  endfacet
  facet normal  0.000000e+000 -1.000000e+000  0.000000e+000
    outer loop
      vertex -1.200000e+001  1.700000e+001  7.000000e+000
      vertex -1.700000e+001  1.700000e+001  1.000000e+001
      vertex -1.700000e+001  1.700000e+001  3.000000e+000
    endloop
  endfacet
  facet normal  0.000000e+000 -1.000000e+000  0.000000e+000
    outer loop
      vertex -1.200000e+001  1.700000e+001  7.000000e+000
      vertex -1.700000e+001  1.700000e+001  3.000000e+000
      vertex -1.200000e+001  1.700000e+001  3.000000e+000
    endloop
  endfacet
  facet normal  0.000000e+000 -1.000000e+000  0.000000e+000
    outer loop
      vertex -4.500000e+000  1.700000e+001  1.000000e+001
      vertex -1.200000e+001  1.700000e+001  7.000000e+000
      vertex -1.000000e+001  1.700000e+001  7.000000e+000
    endloop
  endfacet
  facet normal  0.000000e+000 -1.000000e+000  0.000000e+000
    outer loop
      vertex -4.500000e+000  1.700000e+001  1.000000e+001
      vertex -1.000000e+001  1.700000e+001  7.000000e+000
      vertex -1.000000e+001  1.700000e+001  3.000000e+000
    endloop
  endfacet
  facet normal  0.000000e+000 -1.000000e+000  0.000000e+000
    outer loop
      vertex -4.500000e+000  1.700000e+001  1.000000e+001
      vertex -1.000000e+001  1.700000e+001  3.000000e+000
      vertex -6.000000e+000  1.700000e+001  5.000000e+000
    endloop
  endfacet
  facet normal  0.000000e+000 -1.000000e+000  0.000000e+000
    outer loop
      vertex -4.500000e+000  1.700000e+001  1.000000e+001
      vertex -6.000000e+000  1.700000e+001  5.000000e+000
      vertex -4.500000e+000  1.700000e+001  6.000000e+000
    endloop
  endfacet
  facet normal  0.000000e+000 -1.000000e+000  0.000000e+000
    outer loop
      vertex  1.000000e+001  1.700000e+001  7.000000e+000
      vertex  1.200000e+001  1.700000e+001  7.000000e+000
      vertex  1.700000e+001  1.700000e+001  1.000000e+001
    endloop
  endfacet
  facet normal  -0.000000e+000 -1.000000e+000  0.000000e+000
    outer loop
      vertex  1.000000e+001  1.700000e+001  7.000000e+000
      vertex  1.700000e+001  1.700000e+001  1.000000e+001
      vertex  4.500000e+000  1.700000e+001  1.000000e+001
    endloop
  endfacet
  facet normal  0.000000e+000 -1.000000e+000  0.000000e+000
    outer loop
      vertex  1.000000e+001  1.700000e+001  7.000000e+000
      vertex  4.500000e+000  1.700000e+001  1.000000e+001
      vertex  4.500000e+000  1.700000e+001  6.000000e+000
    endloop
  endfacet
  facet normal  0.000000e+000 -1.000000e+000  0.000000e+000
    outer loop
      vertex  1.000000e+001  1.700000e+001  7.000000e+000
      vertex  4.500000e+000  1.700000e+001  6.000000e+000
      vertex  6.000000e+000  1.700000e+001  5.000000e+000
    endloop
  endfacet
  facet normal  0.000000e+000 -1.000000e+000  0.000000e+000
    outer loop
      vertex  1.000000e+001  1.700000e+001  7.000000e+000
      vertex  6.000000e+000  1.700000e+001  5.000000e+000
      vertex  6.000000e+000  1.700000e+001  3.000000e+000
    endloop
  endfacet
  facet normal  0.000000e+000 -1.000000e+000  0.000000e+000
    outer loop
      vertex  1.000000e+001  1.700000e+001  7.000000e+000
      vertex  6.000000e+000  1.700000e+001  3.000000e+000
      vertex  1.000000e+001  1.700000e+001  3.000000e+000
    endloop
  endfacet
  facet normal  0.000000e+000 -1.000000e+000  0.000000e+000
    outer loop
      vertex  4.500000e+000  1.700000e+001  6.000000e+000
      vertex -4.500000e+000  1.700000e+001  6.000000e+000
      vertex  6.000000e+000  1.700000e+001  5.000000e+000
    endloop
  endfacet
  facet normal  0.000000e+000 -1.000000e+000  0.000000e+000
    outer loop
      vertex  6.000000e+000  1.700000e+001  5.000000e+000
      vertex -4.500000e+000  1.700000e+001  6.000000e+000
      vertex -6.000000e+000  1.700000e+001  5.000000e+000
    endloop
  endfacet
  facet normal  0.000000e+000 -1.000000e+000  -0.000000e+000
    outer loop
      vertex  1.700000e+001  1.700000e+001  3.000000e+000
      vertex  1.700000e+001  1.700000e+001  1.000000e+001
      vertex  1.200000e+001  1.700000e+001  3.000000e+000
    endloop
  endfacet
  facet normal  0.000000e+000 -1.000000e+000  0.000000e+000
    outer loop
      vertex  1.200000e+001  1.700000e+001  3.000000e+000
      vertex  1.700000e+001  1.700000e+001  1.000000e+001
      vertex  1.200000e+001  1.700000e+001  7.000000e+000
    endloop
  endfacet
  facet normal  0.000000e+000  1.000000e+000  0.000000e+000
    outer loop
      vertex -1.700000e+001  2.000000e+001  1.000000e+001
      vertex -4.500000e+000  2.000000e+001  1.000000e+001
      vertex -1.700000e+001  2.000000e+001  0.000000e+000
    endloop
  endfacet
  facet normal  0.000000e+000  1.000000e+000  0.000000e+000
    outer loop
      vertex -1.700000e+001  2.000000e+001  0.000000e+000
      vertex -4.500000e+000  2.000000e+001  1.000000e+001
      vertex -4.500000e+000  2.000000e+001  6.000000e+000
    endloop
  endfacet
  facet normal  0.000000e+000  1.000000e+000  0.000000e+000
    outer loop
      vertex -1.700000e+001  2.000000e+001  0.000000e+000
      vertex -4.500000e+000  2.000000e+001  6.000000e+000
      vertex  1.700000e+001  2.000000e+001  0.000000e+000
    endloop
  endfacet
  facet normal  0.000000e+000  1.000000e+000  0.000000e+000
    outer loop
      vertex  1.700000e+001  2.000000e+001  0.000000e+000
      vertex -4.500000e+000  2.000000e+001  6.000000e+000
      vertex  4.500000e+000  2.000000e+001  6.000000e+000
    endloop
  endfacet
  facet normal  -0.000000e+000  1.000000e+000  0.000000e+000
    outer loop
      vertex  1.700000e+001  2.000000e+001  0.000000e+000
      vertex  4.500000e+000  2.000000e+001  6.000000e+000
      vertex  1.700000e+001  2.000000e+001  1.000000e+001
    endloop
  endfacet
  facet normal  0.000000e+000  1.000000e+000  0.000000e+000
    outer loop
      vertex  1.700000e+001  2.000000e+001  1.000000e+001
      vertex  4.500000e+000  2.000000e+001  6.000000e+000
      vertex  4.500000e+000  2.000000e+001  1.000000e+001
    endloop
  endfacet
  facet normal  0.000000e+000  0.000000e+000  1.000000e+000
    outer loop
      vertex  1.700000e+001  1.700000e+001  1.000000e+001
      vertex  1.700000e+001 -1.700000e+001  1.000000e+001
      vertex  2.000000e+001 -1.700000e+001  1.000000e+001
    endloop
  endfacet
  facet normal  0.000000e+000  -0.000000e+000  1.000000e+000
    outer loop
      vertex  1.700000e+001  1.700000e+001  1.000000e+001
      vertex  2.000000e+001 -1.700000e+001  1.000000e+001
      vertex  2.000000e+001  1.700000e+001  1.000000e+001
    endloop
  endfacet
  facet normal  0.000000e+000  0.000000e+000  1.000000e+000
    outer loop
      vertex  1.700000e+001  1.700000e+001  1.000000e+001
      vertex  2.000000e+001  1.700000e+001  1.000000e+001
      vertex  1.992478e+001  1.766756e+001  1.000000e+001
    endloop
  endfacet
  facet normal  0.000000e+000  0.000000e+000  1.000000e+000
    outer loop
      vertex  1.700000e+001  1.700000e+001  1.000000e+001
      vertex  1.992478e+001  1.766756e+001  1.000000e+001
      vertex  4.500000e+000  1.700000e+001  1.000000e+001
    endloop
  endfacet
  facet normal  0.000000e+000  0.000000e+000  1.000000e+000
    outer loop
      vertex  4.500000e+000  1.700000e+001  1.000000e+001
      vertex  1.992478e+001  1.766756e+001  1.000000e+001
      vertex  1.970291e+001  1.830165e+001  1.000000e+001
    endloop
  endfacet
  facet normal  0.000000e+000  0.000000e+000  1.000000e+000
    outer loop
      vertex  4.500000e+000  1.700000e+001  1.000000e+001
      vertex  1.970291e+001  1.830165e+001  1.000000e+001
      vertex  1.934550e+001  1.887047e+001  1.000000e+001
    endloop
  endfacet
  facet normal  0.000000e+000  0.000000e+000  1.000000e+000
    outer loop
      vertex  4.500000e+000  1.700000e+001  1.000000e+001
      vertex  1.934550e+001  1.887047e+001  1.000000e+001
      vertex  1.887047e+001  1.934550e+001  1.000000e+001
    endloop
  endfacet
  facet normal  0.000000e+000  0.000000e+000  1.000000e+000
    outer loop
      vertex  4.500000e+000  1.700000e+001  1.000000e+001
      vertex  1.887047e+001  1.934550e+001  1.000000e+001
      vertex  1.830165e+001  1.970291e+001  1.000000e+001
    endloop
  endfacet
  facet normal  0.000000e+000  0.000000e+000  1.000000e+000
    outer loop
      vertex  4.500000e+000  1.700000e+001  1.000000e+001
      vertex  1.830165e+001  1.970291e+001  1.000000e+001
      vertex  1.766756e+001  1.992478e+001  1.000000e+001
    endloop
  endfacet
  facet normal  0.000000e+000  0.000000e+000  1.000000e+000
    outer loop
      vertex  4.500000e+000  1.700000e+001  1.000000e+001
      vertex  1.766756e+001  1.992478e+001  1.000000e+001
      vertex  1.700000e+001  2.000000e+001  1.000000e+001
    endloop
  endfacet
  facet normal  0.000000e+000  0.000000e+000  1.000000e+000
    outer loop
      vertex  4.500000e+000  1.700000e+001  1.000000e+001
      vertex  1.700000e+001  2.000000e+001  1.000000e+001
      vertex  4.500000e+000  2.000000e+001  1.000000e+001
    endloop
  endfacet
  facet normal  0.000000e+000  -0.000000e+000  9.999999e-001
    outer loop
      vertex -1.992478e+001 -1.766756e+001  1.000000e+001
      vertex -1.970291e+001 -1.830165e+001  1.000000e+001
      vertex  1.970291e+001 -1.830165e+001  1.000000e+001
    endloop
  endfacet
  facet normal  0.000000e+000  -0.000000e+000  1.000000e+000
    outer loop
      vertex -1.992478e+001 -1.766756e+001  1.000000e+001
      vertex  1.970291e+001 -1.830165e+001  1.000000e+001
      vertex  1.992478e+001 -1.766756e+001  1.000000e+001
    endloop
  endfacet
  facet normal  0.000000e+000  -0.000000e+000  1.000000e+000
    outer loop
      vertex -1.992478e+001 -1.766756e+001  1.000000e+001
      vertex  1.992478e+001 -1.766756e+001  1.000000e+001
      vertex  2.000000e+001 -1.700000e+001  1.000000e+001
    endloop
  endfacet
  facet normal  0.000000e+000  0.000000e+000  1.000000e+000
    outer loop
      vertex -1.992478e+001 -1.766756e+001  1.000000e+001
      vertex  2.000000e+001 -1.700000e+001  1.000000e+001
      vertex  1.700000e+001 -1.700000e+001  1.000000e+001
    endloop
  endfacet
  facet normal  0.000000e+000  0.000000e+000  1.000000e+000
    outer loop
      vertex -1.992478e+001 -1.766756e+001  1.000000e+001
      vertex  1.700000e+001 -1.700000e+001  1.000000e+001
      vertex -1.700000e+001 -1.700000e+001  1.000000e+001
    endloop
  endfacet
  facet normal  0.000000e+000  0.000000e+000  1.000000e+000
    outer loop
      vertex -1.992478e+001 -1.766756e+001  1.000000e+001
      vertex -1.700000e+001 -1.700000e+001  1.000000e+001
      vertex -2.000000e+001 -1.700000e+001  1.000000e+001
    endloop
  endfacet
  facet normal  0.000000e+000  0.000000e+000  1.000000e+000
    outer loop
      vertex -4.500000e+000  1.700000e+001  1.000000e+001
      vertex -4.500000e+000  2.000000e+001  1.000000e+001
      vertex -1.700000e+001  2.000000e+001  1.000000e+001
    endloop
  endfacet
  facet normal  0.000000e+000  0.000000e+000  1.000000e+000
    outer loop
      vertex -4.500000e+000  1.700000e+001  1.000000e+001
      vertex -1.700000e+001  2.000000e+001  1.000000e+001
      vertex -1.766756e+001  1.992478e+001  1.000000e+001
    endloop
  endfacet
  facet normal  0.000000e+000  0.000000e+000  1.000000e+000
    outer loop
      vertex -4.500000e+000  1.700000e+001  1.000000e+001
      vertex -1.766756e+001  1.992478e+001  1.000000e+001
      vertex -1.830165e+001  1.970291e+001  1.000000e+001
    endloop
  endfacet
  facet normal  0.000000e+000  0.000000e+000  1.000000e+000
    outer loop
      vertex -4.500000e+000  1.700000e+001  1.000000e+001
      vertex -1.830165e+001  1.970291e+001  1.000000e+001
      vertex -1.887047e+001  1.934550e+001  1.000000e+001
    endloop
  endfacet
  facet normal  0.000000e+000  0.000000e+000  1.000000e+000
    outer loop
      vertex -4.500000e+000  1.700000e+001  1.000000e+001
      vertex -1.887047e+001  1.934550e+001  1.000000e+001
      vertex -1.934550e+001  1.887047e+001  1.000000e+001
    endloop
  endfacet
  facet normal  0.000000e+000  0.000000e+000  1.000000e+000
    outer loop
      vertex -4.500000e+000  1.700000e+001  1.000000e+001
      vertex -1.934550e+001  1.887047e+001  1.000000e+001
      vertex -1.970291e+001  1.830165e+001  1.000000e+001
    endloop
  endfacet
  facet normal  0.000000e+000  0.000000e+000  1.000000e+000
    outer loop
      vertex -4.500000e+000  1.700000e+001  1.000000e+001
      vertex -1.970291e+001  1.830165e+001  1.000000e+001
      vertex -1.992478e+001  1.766756e+001  1.000000e+001
    endloop
  endfacet
  facet normal  0.000000e+000  0.000000e+000  1.000000e+000
    outer loop
      vertex -4.500000e+000  1.700000e+001  1.000000e+001
      vertex -1.992478e+001  1.766756e+001  1.000000e+001
      vertex -1.700000e+001  1.700000e+001  1.000000e+001
    endloop
  endfacet
  facet normal  -0.000000e+000  0.000000e+000  1.000000e+000
    outer loop
      vertex  1.970291e+001 -1.830165e+001  1.000000e+001
      vertex -1.970291e+001 -1.830165e+001  1.000000e+001
      vertex  1.934550e+001 -1.887047e+001  1.000000e+001
    endloop
  endfacet
  facet normal  0.000000e+000  0.000000e+000  9.999999e-001
    outer loop
      vertex  1.934550e+001 -1.887047e+001  1.000000e+001
      vertex -1.970291e+001 -1.830165e+001  1.000000e+001
      vertex -1.934550e+001 -1.887047e+001  1.000000e+001
    endloop
  endfacet
  facet normal  -0.000000e+000  0.000000e+000  9.999999e-001
    outer loop
      vertex  1.934550e+001 -1.887047e+001  1.000000e+001
      vertex -1.934550e+001 -1.887047e+001  1.000000e+001
      vertex  1.887047e+001 -1.934550e+001  1.000000e+001
    endloop
  endfacet
  facet normal  0.000000e+000  0.000000e+000  1.000000e+000
    outer loop
      vertex  1.887047e+001 -1.934550e+001  1.000000e+001
      vertex -1.934550e+001 -1.887047e+001  1.000000e+001
      vertex -1.887047e+001 -1.934550e+001  1.000000e+001
    endloop
  endfacet
  facet normal  -0.000000e+000  0.000000e+000  1.000000e+000
    outer loop
      vertex  1.887047e+001 -1.934550e+001  1.000000e+001
      vertex -1.887047e+001 -1.934550e+001  1.000000e+001
      vertex  1.830165e+001 -1.970291e+001  1.000000e+001
    endloop
  endfacet
  facet normal  0.000000e+000  0.000000e+000  1.000000e+000
    outer loop
      vertex  1.830165e+001 -1.970291e+001  1.000000e+001
      vertex -1.887047e+001 -1.934550e+001  1.000000e+001
      vertex -1.830165e+001 -1.970291e+001  1.000000e+001
    endloop
  endfacet
  facet normal  -0.000000e+000  0.000000e+000  1.000000e+000
    outer loop
      vertex  1.830165e+001 -1.970291e+001  1.000000e+001
      vertex -1.830165e+001 -1.970291e+001  1.000000e+001
      vertex  1.766756e+001 -1.992478e+001  1.000000e+001
    endloop
  endfacet
  facet normal  0.000000e+000  0.000000e+000  1.000000e+000
    outer loop
      vertex  1.766756e+001 -1.992478e+001  1.000000e+001
      vertex -1.830165e+001 -1.970291e+001  1.000000e+001
      vertex -1.766756e+001 -1.992478e+001  1.000000e+001
    endloop
  endfacet
  facet normal  -0.000000e+000  0.000000e+000  1.000000e+000
    outer loop
      vertex  1.766756e+001 -1.992478e+001  1.000000e+001
      vertex -1.766756e+001 -1.992478e+001  1.000000e+001
      vertex  1.700000e+001 -2.000000e+001  1.000000e+001
    endloop
  endfacet
  facet normal  0.000000e+000  0.000000e+000  1.000000e+000
    outer loop
      vertex  1.700000e+001 -2.000000e+001  1.000000e+001
      vertex -1.766756e+001 -1.992478e+001  1.000000e+001
      vertex -1.700000e+001 -2.000000e+001  1.000000e+001
    endloop
  endfacet
  facet normal  0.000000e+000  0.000000e+000  1.000000e+000
    outer loop
      vertex -2.000000e+001 -1.700000e+001  1.000000e+001
      vertex -1.700000e+001 -1.700000e+001  1.000000e+001
      vertex -2.000000e+001  1.700000e+001  1.000000e+001
    endloop
  endfacet
  facet normal  -0.000000e+000  0.000000e+000  1.000000e+000
    outer loop
      vertex -2.000000e+001  1.700000e+001  1.000000e+001
      vertex -1.700000e+001 -1.700000e+001  1.000000e+001
      vertex -1.700000e+001  1.700000e+001  1.000000e+001
    endloop
  endfacet
  facet normal  0.000000e+000  0.000000e+000  1.000000e+000
    outer loop
      vertex -2.000000e+001  1.700000e+001  1.000000e+001
      vertex -1.700000e+001  1.700000e+001  1.000000e+001
      vertex -1.992478e+001  1.766756e+001  1.000000e+001
    endloop
  endfacet
  facet normal -1.000000e+000  0.000000e+000  0.000000e+000
    outer loop
      vertex  4.500000e+000  2.000000e+001  1.000000e+001
      vertex  4.500000e+000  2.000000e+001  6.000000e+000
      vertex  4.500000e+000  1.700000e+001  1.000000e+001
    endloop
  endfacet
  facet normal -1.000000e+000  0.000000e+000  0.000000e+000
    outer loop
      vertex  4.500000e+000  1.700000e+001  1.000000e+001
      vertex  4.500000e+000  2.000000e+001  6.000000e+000
      vertex  4.500000e+000  1.700000e+001  6.000000e+000
    endloop
  endfacet
  facet normal  -0.000000e+000  0.000000e+000  1.000000e+000
    outer loop
      vertex  4.500000e+000  2.000000e+001  6.000000e+000
      vertex -4.500000e+000  2.000000e+001  6.000000e+000
      vertex  4.500000e+000  1.700000e+001  6.000000e+000
    endloop
  endfacet
  facet normal  0.000000e+000  0.000000e+000  1.000000e+000
    outer loop
      vertex  4.500000e+000  1.700000e+001  6.000000e+000
      vertex -4.500000e+000  2.000000e+001  6.000000e+000
      vertex -4.500000e+000  1.700000e+001  6.000000e+000
    endloop
  endfacet
  facet normal  1.000000e+000  0.000000e+000  0.000000e+000
    outer loop
      vertex -4.500000e+000  2.000000e+001  6.000000e+000
      vertex -4.500000e+000  2.000000e+001  1.000000e+001
      vertex -4.500000e+000  1.700000e+001  6.000000e+000
    endloop
  endfacet
  facet normal  1.000000e+000  0.000000e+000  0.000000e+000
    outer loop
      vertex -4.500000e+000  1.700000e+001  6.000000e+000
      vertex -4.500000e+000  2.000000e+001  1.000000e+001
      vertex -4.500000e+000  1.700000e+001  1.000000e+001
    endloop
  endfacet
  facet normal  0.000000e+000  0.000000e+000  1.000000e+000
    outer loop
      vertex -1.000000e+001 -1.700000e+001  3.000000e+000
      vertex -6.000000e+000 -1.700000e+001  3.000000e+000
      vertex -1.000000e+001  1.700000e+001  3.000000e+000
    endloop
  endfacet
  facet normal  -0.000000e+000  0.000000e+000  1.000000e+000
    outer loop
      vertex -1.000000e+001  1.700000e+001  3.000000e+000
      vertex -6.000000e+000 -1.700000e+001  3.000000e+000
      vertex -6.000000e+000  1.700000e+001  3.000000e+000
    endloop
  endfacet
  facet normal  0.000000e+000  0.000000e+000  1.000000e+000
    outer loop
      vertex  6.000000e+000 -1.700000e+001  3.000000e+000
      vertex  1.000000e+001 -1.700000e+001  3.000000e+000
      vertex  6.000000e+000  1.700000e+001  3.000000e+000
    endloop
  endfacet
  facet normal  -0.000000e+000  0.000000e+000  1.000000e+000
    outer loop
      vertex  6.000000e+000  1.700000e+001  3.000000e+000
      vertex  1.000000e+001 -1.700000e+001  3.000000e+000
      vertex  1.000000e+001  1.700000e+001  3.000000e+000
    endloop
  endfacet
  facet normal  0.000000e+000  1.000000e+000  0.000000e+000
    outer loop
      vertex  1.200000e+001 -1.700000e+001  3.000000e+000
      vertex  1.200000e+001 -1.700000e+001  7.000000e+000
      vertex  1.700000e+001 -1.700000e+001  3.000000e+000
    endloop
  endfacet
  facet normal  0.000000e+000  1.000000e+000  0.000000e+000
    outer loop
      vertex -1.000000e+001 -1.700000e+001  7.000000e+000
      vertex  1.000000e+001 -1.700000e+001  7.000000e+000
      vertex  6.000000e+000 -1.700000e+001  5.000000e+000
    endloop
  endfacet
  facet normal  0.000000e+000  1.000000e+000  0.000000e+000
    outer loop
      vertex -1.000000e+001 -1.700000e+001  7.000000e+000
      vertex  6.000000e+000 -1.700000e+001  5.000000e+000
      vertex -6.000000e+000 -1.700000e+001  5.000000e+000
    endloop
  endfacet
  facet normal  0.000000e+000  1.000000e+000  0.000000e+000
    outer loop
      vertex -1.000000e+001 -1.700000e+001  7.000000e+000
      vertex -6.000000e+000 -1.700000e+001  5.000000e+000
      vertex -6.000000e+000 -1.700000e+001  3.000000e+000
    endloop
  endfacet
  facet normal  0.000000e+000  1.000000e+000  0.000000e+000
    outer loop
      vertex -1.000000e+001 -1.700000e+001  7.000000e+000
      vertex -6.000000e+000 -1.700000e+001  3.000000e+000
      vertex -1.000000e+001 -1.700000e+001  3.000000e+000
    endloop
  endfacet
  facet normal  0.000000e+000  1.000000e+000  -0.000000e+000
    outer loop
      vertex  1.700000e+001 -1.700000e+001  1.000000e+001
      vertex  1.700000e+001 -1.700000e+001  3.000000e+000
      vertex  1.200000e+001 -1.700000e+001  7.000000e+000
    endloop
  endfacet
  facet normal  0.000000e+000  1.000000e+000  -0.000000e+000
    outer loop
      vertex  1.700000e+001 -1.700000e+001  1.000000e+001
      vertex  1.200000e+001 -1.700000e+001  7.000000e+000
      vertex  1.000000e+001 -1.700000e+001  7.000000e+000
    endloop
  endfacet
  facet normal  0.000000e+000  1.000000e+000  -0.000000e+000
    outer loop
      vertex  1.700000e+001 -1.700000e+001  1.000000e+001
      vertex  1.000000e+001 -1.700000e+001  7.000000e+000
      vertex -1.000000e+001 -1.700000e+001  7.000000e+000
    endloop
  endfacet
  facet normal  0.000000e+000  1.000000e+000  -0.000000e+000
    outer loop
      vertex  1.700000e+001 -1.700000e+001  1.000000e+001
      vertex -1.000000e+001 -1.700000e+001  7.000000e+000
      vertex -1.200000e+001 -1.700000e+001  7.000000e+000
    endloop
  endfacet
  facet normal  0.000000e+000  1.000000e+000  -0.000000e+000
    outer loop
      vertex  1.700000e+001 -1.700000e+001  1.000000e+001
      vertex -1.200000e+001 -1.700000e+001  7.000000e+000
      vertex -1.700000e+001 -1.700000e+001  1.000000e+001
    endloop
  endfacet
  facet normal  0.000000e+000  1.000000e+000  0.000000e+000
    outer loop
      vertex  6.000000e+000 -1.700000e+001  3.000000e+000
      vertex  6.000000e+000 -1.700000e+001  5.000000e+000
      vertex  1.000000e+001 -1.700000e+001  3.000000e+000
    endloop
  endfacet
  facet normal  0.000000e+000  1.000000e+000  -0.000000e+000
    outer loop
      vertex  1.000000e+001 -1.700000e+001  3.000000e+000
      vertex  6.000000e+000 -1.700000e+001  5.000000e+000
      vertex  1.000000e+001 -1.700000e+001  7.000000e+000
    endloop
  endfacet
  facet normal  0.000000e+000  1.000000e+000  0.000000e+000
    outer loop
      vertex -1.700000e+001 -1.700000e+001  3.000000e+000
      vertex -1.700000e+001 -1.700000e+001  1.000000e+001
      vertex -1.200000e+001 -1.700000e+001  3.000000e+000
    endloop
  endfacet
  facet normal  0.000000e+000  1.000000e+000  -0.000000e+000
    outer loop
      vertex -1.200000e+001 -1.700000e+001  3.000000e+000
      vertex -1.700000e+001 -1.700000e+001  1.000000e+001
      vertex -1.200000e+001 -1.700000e+001  7.000000e+000
    endloop
  endfacet
  facet normal -1.000000e+000  0.000000e+000  0.000000e+000
    outer loop
      vertex -6.000000e+000 -1.700000e+001  3.000000e+000
      vertex -6.000000e+000 -1.700000e+001  5.000000e+000
      vertex -6.000000e+000  1.700000e+001  3.000000e+000
    endloop
  endfacet
  facet normal -1.000000e+000  0.000000e+000  0.000000e+000
    outer loop
      vertex -6.000000e+000  1.700000e+001  3.000000e+000
      vertex -6.000000e+000 -1.700000e+001  5.000000e+000
      vertex -6.000000e+000  1.700000e+001  5.000000e+000
    endloop
  endfacet
  facet normal  0.000000e+000  0.000000e+000  1.000000e+000
    outer loop
      vertex -6.000000e+000 -1.700000e+001  5.000000e+000
      vertex  6.000000e+000 -1.700000e+001  5.000000e+000
      vertex -6.000000e+000  1.700000e+001  5.000000e+000
    endloop
  endfacet
  facet normal  -0.000000e+000  0.000000e+000  1.000000e+000
    outer loop
      vertex -6.000000e+000  1.700000e+001  5.000000e+000
      vertex  6.000000e+000 -1.700000e+001  5.000000e+000
      vertex  6.000000e+000  1.700000e+001  5.000000e+000
    endloop
  endfacet
  facet normal  1.000000e+000  0.000000e+000  0.000000e+000
    outer loop
      vertex  6.000000e+000 -1.700000e+001  5.000000e+000
      vertex  6.000000e+000 -1.700000e+001  3.000000e+000
      vertex  6.000000e+000  1.700000e+001  5.000000e+000
    endloop
  endfacet
  facet normal  1.000000e+000  0.000000e+000  0.000000e+000
    outer loop
      vertex  6.000000e+000  1.700000e+001  5.000000e+000
      vertex  6.000000e+000 -1.700000e+001  3.000000e+000
      vertex  6.000000e+000  1.700000e+001  3.000000e+000
    endloop
  endfacet
  facet normal  0.000000e+000  0.000000e+000  1.000000e+000
    outer loop
      vertex -1.700000e+001 -1.700000e+001  3.000000e+000
      vertex -1.200000e+001 -1.700000e+001  3.000000e+000
      vertex -1.700000e+001  1.700000e+001  3.000000e+000
    endloop
  endfacet
  facet normal  -0.000000e+000  0.000000e+000  1.000000e+000
    outer loop
      vertex -1.700000e+001  1.700000e+001  3.000000e+000
      vertex -1.200000e+001 -1.700000e+001  3.000000e+000
      vertex -1.200000e+001  1.700000e+001  3.000000e+000
    endloop
  endfacet
  facet normal -1.000000e+000  0.000000e+000  0.000000e+000
    outer loop
      vertex -1.200000e+001 -1.700000e+001  3.000000e+000
      vertex -1.200000e+001 -1.700000e+001  7.000000e+000
      vertex -1.200000e+001  1.700000e+001  3.000000e+000
    endloop
  endfacet
  facet normal -1.000000e+000  0.000000e+000  0.000000e+000
    outer loop
      vertex -1.200000e+001  1.700000e+001  3.000000e+000
      vertex -1.200000e+001 -1.700000e+001  7.000000e+000
      vertex -1.200000e+001  1.700000e+001  7.000000e+000
    endloop
  endfacet
  facet normal  0.000000e+000  0.000000e+000  1.000000e+000
    outer loop
      vertex -1.200000e+001 -1.700000e+001  7.000000e+000
      vertex -1.000000e+001 -1.700000e+001  7.000000e+000
      vertex -1.200000e+001  1.700000e+001  7.000000e+000
    endloop
  endfacet
  facet normal  -0.000000e+000  0.000000e+000  1.000000e+000
    outer loop
      vertex -1.200000e+001  1.700000e+001  7.000000e+000
      vertex -1.000000e+001 -1.700000e+001  7.000000e+000
      vertex -1.000000e+001  1.700000e+001  7.000000e+000
    endloop
  endfacet
  facet normal  1.000000e+000  0.000000e+000  0.000000e+000
    outer loop
      vertex -1.000000e+001 -1.700000e+001  7.000000e+000
      vertex -1.000000e+001 -1.700000e+001  3.000000e+000
      vertex -1.000000e+001  1.700000e+001  7.000000e+000
    endloop
  endfacet
  facet normal  1.000000e+000  0.000000e+000  0.000000e+000
    outer loop
      vertex -1.000000e+001  1.700000e+001  7.000000e+000
      vertex -1.000000e+001 -1.700000e+001  3.000000e+000
      vertex -1.000000e+001  1.700000e+001  3.000000e+000
    endloop
  endfacet
  facet normal  0.000000e+000  0.000000e+000  1.000000e+000
    outer loop
      vertex  1.200000e+001 -1.700000e+001  3.000000e+000
      vertex  1.700000e+001 -1.700000e+001  3.000000e+000
      vertex  1.200000e+001  1.700000e+001  3.000000e+000
    endloop
  endfacet
  facet normal  -0.000000e+000  0.000000e+000  1.000000e+000
    outer loop
      vertex  1.200000e+001  1.700000e+001  3.000000e+000
      vertex  1.700000e+001 -1.700000e+001  3.000000e+000
      vertex  1.700000e+001  1.700000e+001  3.000000e+000
    endloop
  endfacet
  facet normal -1.000000e+000  0.000000e+000  0.000000e+000
    outer loop
      vertex  1.000000e+001 -1.700000e+001  3.000000e+000
      vertex  1.000000e+001 -1.700000e+001  7.000000e+000
      vertex  1.000000e+001  1.700000e+001  3.000000e+000
    endloop
  endfacet
  facet normal -1.000000e+000  0.000000e+000  0.000000e+000
    outer loop
      vertex  1.000000e+001  1.700000e+001  3.000000e+000
      vertex  1.000000e+001 -1.700000e+001  7.000000e+000
      vertex  1.000000e+001  1.700000e+001  7.000000e+000
    endloop
  endfacet
  facet normal  0.000000e+000  0.000000e+000  1.000000e+000
    outer loop
      vertex  1.000000e+001 -1.700000e+001  7.000000e+000
      vertex  1.200000e+001 -1.700000e+001  7.000000e+000
      vertex  1.000000e+001  1.700000e+001  7.000000e+000
    endloop
  endfacet
  facet normal  -0.000000e+000  0.000000e+000  1.000000e+000
    outer loop
      vertex  1.000000e+001  1.700000e+001  7.000000e+000
      vertex  1.200000e+001 -1.700000e+001  7.000000e+000
      vertex  1.200000e+001  1.700000e+001  7.000000e+000
    endloop
  endfacet
  facet normal  1.000000e+000  0.000000e+000  0.000000e+000
    outer loop
      vertex  1.200000e+001 -1.700000e+001  7.000000e+000
      vertex  1.200000e+001 -1.700000e+001  3.000000e+000
      vertex  1.200000e+001  1.700000e+001  7.000000e+000
    endloop
  endfacet
  facet normal  1.000000e+000  0.000000e+000  0.000000e+000
    outer loop
      vertex  1.200000e+001  1.700000e+001  7.000000e+000
      vertex  1.200000e+001 -1.700000e+001  3.000000e+000
      vertex  1.200000e+001  1.700000e+001  3.000000e+000
    endloop
  endfacet
  facet normal  1.000000e+000  0.000000e+000  0.000000e+000
    outer loop
      vertex -1.700000e+001  1.700000e+001  3.000000e+000
      vertex -1.700000e+001  1.700000e+001  1.000000e+001
      vertex -1.700000e+001 -1.700000e+001  3.000000e+000
    endloop
  endfacet
  facet normal  1.000000e+000  0.000000e+000  0.000000e+000
    outer loop
      vertex -1.700000e+001 -1.700000e+001  3.000000e+000
      vertex -1.700000e+001  1.700000e+001  1.000000e+001
      vertex -1.700000e+001 -1.700000e+001  1.000000e+001
    endloop
  endfacet
  facet normal -1.000000e+000  0.000000e+000  0.000000e+000
    outer loop
      vertex  1.700000e+001 -1.700000e+001  3.000000e+000
      vertex  1.700000e+001 -1.700000e+001  1.000000e+001
      vertex  1.700000e+001  1.700000e+001  3.000000e+000
    endloop
  endfacet
  facet normal -1.000000e+000  0.000000e+000  0.000000e+000
    outer loop
      vertex  1.700000e+001  1.700000e+001  3.000000e+000
      vertex  1.700000e+001 -1.700000e+001  1.000000e+001
      vertex  1.700000e+001  1.700000e+001  1.000000e+001
    endloop
  endfacet
  facet normal  -0.000000e+000  0.000000e+000 -1.000000e+000
    outer loop
      vertex -1.700000e+001  2.000000e+001  0.000000e+000
      vertex  1.700000e+001  2.000000e+001  0.000000e+000
      vertex -1.766756e+001  1.992478e+001  0.000000e+000
    endloop
  endfacet
  facet normal  0.000000e+000  0.000000e+000 -1.000000e+000
    outer loop
      vertex -1.766756e+001  1.992478e+001  0.000000e+000
      vertex  1.700000e+001  2.000000e+001  0.000000e+000
      vertex  1.766756e+001  1.992478e+001  0.000000e+000
    endloop
  endfacet
  facet normal  -0.000000e+000  0.000000e+000 -1.000000e+000
    outer loop
      vertex -1.766756e+001  1.992478e+001  0.000000e+000
      vertex  1.766756e+001  1.992478e+001  0.000000e+000
      vertex -1.830165e+001  1.970291e+001  0.000000e+000
    endloop
  endfacet
  facet normal  0.000000e+000  0.000000e+000 -1.000000e+000
    outer loop
      vertex -1.830165e+001  1.970291e+001  0.000000e+000
      vertex  1.766756e+001  1.992478e+001  0.000000e+000
      vertex  1.830165e+001  1.970291e+001  0.000000e+000
    endloop
  endfacet
  facet normal  -0.000000e+000  0.000000e+000 -1.000000e+000
    outer loop
      vertex -1.830165e+001  1.970291e+001  0.000000e+000
      vertex  1.830165e+001  1.970291e+001  0.000000e+000
      vertex -1.887047e+001  1.934550e+001  0.000000e+000
    endloop
  endfacet
  facet normal  0.000000e+000  0.000000e+000 -1.000000e+000
    outer loop
      vertex -1.887047e+001  1.934550e+001  0.000000e+000
      vertex  1.830165e+001  1.970291e+001  0.000000e+000
      vertex  1.887047e+001  1.934550e+001  0.000000e+000
    endloop
  endfacet
  facet normal  -0.000000e+000  0.000000e+000 -1.000000e+000
    outer loop
      vertex -1.887047e+001  1.934550e+001  0.000000e+000
      vertex  1.887047e+001  1.934550e+001  0.000000e+000
      vertex -1.934550e+001  1.887047e+001  0.000000e+000
    endloop
  endfacet
  facet normal  0.000000e+000  0.000000e+000 -9.999999e-001
    outer loop
      vertex -1.934550e+001  1.887047e+001  0.000000e+000
      vertex  1.887047e+001  1.934550e+001  0.000000e+000
      vertex  1.934550e+001  1.887047e+001  0.000000e+000
    endloop
  endfacet
  facet normal  -0.000000e+000  0.000000e+000 -9.999999e-001
    outer loop
      vertex -1.934550e+001  1.887047e+001  0.000000e+000
      vertex  1.934550e+001  1.887047e+001  0.000000e+000
      vertex -1.970291e+001  1.830165e+001  0.000000e+000
    endloop
  endfacet
  facet normal  0.000000e+000  0.000000e+000 -1.000000e+000
    outer loop
      vertex -1.970291e+001  1.830165e+001  0.000000e+000
      vertex  1.934550e+001  1.887047e+001  0.000000e+000
      vertex  1.970291e+001  1.830165e+001  0.000000e+000
    endloop
  endfacet
  facet normal  -0.000000e+000  0.000000e+000 -9.999999e-001
    outer loop
      vertex -1.970291e+001  1.830165e+001  0.000000e+000
      vertex  1.970291e+001  1.830165e+001  0.000000e+000
      vertex -1.992478e+001  1.766756e+001  0.000000e+000
    endloop
  endfacet
  facet normal  0.000000e+000  0.000000e+000 -1.000000e+000
    outer loop
      vertex -1.992478e+001  1.766756e+001  0.000000e+000
      vertex  1.970291e+001  1.830165e+001  0.000000e+000
      vertex  1.992478e+001  1.766756e+001  0.000000e+000
    endloop
  endfacet
  facet normal  -0.000000e+000  0.000000e+000 -1.000000e+000
    outer loop
      vertex -1.992478e+001  1.766756e+001  0.000000e+000
      vertex  1.992478e+001  1.766756e+001  0.000000e+000
      vertex -2.000000e+001  1.700000e+001  0.000000e+000
    endloop
  endfacet
  facet normal  0.000000e+000  0.000000e+000 -9.999999e-001
    outer loop
      vertex -2.000000e+001  1.700000e+001  0.000000e+000
      vertex  1.992478e+001  1.766756e+001  0.000000e+000
      vertex  2.000000e+001  1.700000e+001  0.000000e+000
    endloop
  endfacet
  facet normal  -0.000000e+000  0.000000e+000 -1.000000e+000
    outer loop
      vertex -2.000000e+001  1.700000e+001  0.000000e+000
      vertex  2.000000e+001  1.700000e+001  0.000000e+000
      vertex -2.000000e+001 -1.700000e+001  0.000000e+000
    endloop
  endfacet
  facet normal  0.000000e+000  0.000000e+000 -1.000000e+000
    outer loop
      vertex -2.000000e+001 -1.700000e+001  0.000000e+000
      vertex  2.000000e+001  1.700000e+001  0.000000e+000
      vertex  2.000000e+001 -1.700000e+001  0.000000e+000
    endloop
  endfacet
  facet normal  -0.000000e+000  0.000000e+000 -9.999999e-001
    outer loop
      vertex -2.000000e+001 -1.700000e+001  0.000000e+000
      vertex  2.000000e+001 -1.700000e+001  0.000000e+000
      vertex -1.992478e+001 -1.766756e+001  0.000000e+000
    endloop
  endfacet
  facet normal  0.000000e+000  0.000000e+000 -1.000000e+000
    outer loop
      vertex -1.992478e+001 -1.766756e+001  0.000000e+000
      vertex  2.000000e+001 -1.700000e+001  0.000000e+000
      vertex  1.992478e+001 -1.766756e+001  0.000000e+000
    endloop
  endfacet
  facet normal  -0.000000e+000  0.000000e+000 -1.000000e+000
    outer loop
      vertex -1.992478e+001 -1.766756e+001  0.000000e+000
      vertex  1.992478e+001 -1.766756e+001  0.000000e+000
      vertex -1.970291e+001 -1.830165e+001  0.000000e+000
    endloop
  endfacet
  facet normal  0.000000e+000  0.000000e+000 -9.999999e-001
    outer loop
      vertex -1.970291e+001 -1.830165e+001  0.000000e+000
      vertex  1.992478e+001 -1.766756e+001  0.000000e+000
      vertex  1.970291e+001 -1.830165e+001  0.000000e+000
    endloop
  endfacet
  facet normal  -0.000000e+000  0.000000e+000 -1.000000e+000
    outer loop
      vertex -1.970291e+001 -1.830165e+001  0.000000e+000
      vertex  1.970291e+001 -1.830165e+001  0.000000e+000
      vertex -1.934550e+001 -1.887047e+001  0.000000e+000
    endloop
  endfacet
  facet normal  0.000000e+000  0.000000e+000 -9.999999e-001
    outer loop
      vertex -1.934550e+001 -1.887047e+001  0.000000e+000
      vertex  1.970291e+001 -1.830165e+001  0.000000e+000
      vertex  1.934550e+001 -1.887047e+001  0.000000e+000
    endloop
  endfacet
  facet normal  -0.000000e+000  0.000000e+000 -9.999999e-001
    outer loop
      vertex -1.934550e+001 -1.887047e+001  0.000000e+000
      vertex  1.934550e+001 -1.887047e+001  0.000000e+000
      vertex -1.887047e+001 -1.934550e+001  0.000000e+000
    endloop
  endfacet
  facet normal  0.000000e+000  0.000000e+000 -1.000000e+000
    outer loop
      vertex -1.887047e+001 -1.934550e+001  0.000000e+000
      vertex  1.934550e+001 -1.887047e+001  0.000000e+000
      vertex  1.887047e+001 -1.934550e+001  0.000000e+000
    endloop
  endfacet
  facet normal  -0.000000e+000  0.000000e+000 -1.000000e+000
    outer loop
      vertex -1.887047e+001 -1.934550e+001  0.000000e+000
      vertex  1.887047e+001 -1.934550e+001  0.000000e+000
      vertex -1.830165e+001 -1.970291e+001  0.000000e+000
    endloop
  endfacet
  facet normal  0.000000e+000  0.000000e+000 -1.000000e+000
    outer loop
      vertex -1.830165e+001 -1.970291e+001  0.000000e+000
      vertex  1.887047e+001 -1.934550e+001  0.000000e+000
      vertex  1.830165e+001 -1.970291e+001  0.000000e+000
    endloop
  endfacet
  facet normal  -0.000000e+000  0.000000e+000 -1.000000e+000
    outer loop
      vertex -1.830165e+001 -1.970291e+001  0.000000e+000
      vertex  1.830165e+001 -1.970291e+001  0.000000e+000
      vertex -1.766756e+001 -1.992478e+001  0.000000e+000
    endloop
  endfacet
  facet normal  0.000000e+000  0.000000e+000 -1.000000e+000
    outer loop
      vertex -1.766756e+001 -1.992478e+001  0.000000e+000
      vertex  1.830165e+001 -1.970291e+001  0.000000e+000
      vertex  1.766756e+001 -1.992478e+001  0.000000e+000
    endloop
  endfacet
  facet normal  -0.000000e+000  0.000000e+000 -1.000000e+000
    outer loop
      vertex -1.766756e+001 -1.992478e+001  0.000000e+000
      vertex  1.766756e+001 -1.992478e+001  0.000000e+000
      vertex -1.700000e+001 -2.000000e+001  0.000000e+000
    endloop
  endfacet
  facet normal  0.000000e+000  0.000000e+000 -1.000000e+000
    outer loop
      vertex -1.700000e+001 -2.000000e+001  0.000000e+000
      vertex  1.766756e+001 -1.992478e+001  0.000000e+000
      vertex  1.700000e+001 -2.000000e+001  0.000000e+000
    endloop
  endfacet
  facet normal -1.119646e-001 -9.937122e-001  -0.000000e+000
    outer loop
      vertex -1.700000e+001 -2.000000e+001  0.000000e+000
      vertex -1.700000e+001 -2.000000e+001  1.000000e+001
      vertex -1.766756e+001 -1.992478e+001  0.000000e+000
    endloop
  endfacet
  facet normal -1.119646e-001 -9.937122e-001  0.000000e+000
    outer loop
      vertex -1.766756e+001 -1.992478e+001  0.000000e+000
      vertex -1.700000e+001 -2.000000e+001  1.000000e+001
      vertex -1.766756e+001 -1.992478e+001  1.000000e+001
    endloop
  endfacet
  facet normal -3.302802e-001 -9.438829e-001  -0.000000e+000
    outer loop
      vertex -1.766756e+001 -1.992478e+001  0.000000e+000
      vertex -1.766756e+001 -1.992478e+001  1.000000e+001
      vertex -1.830165e+001 -1.970291e+001  0.000000e+000
    endloop
  endfacet
  facet normal -3.302802e-001 -9.438829e-001  0.000000e+000
    outer loop
      vertex -1.830165e+001 -1.970291e+001  0.000000e+000
      vertex -1.766756e+001 -1.992478e+001  1.000000e+001
      vertex -1.830165e+001 -1.970291e+001  1.000000e+001
    endloop
  endfacet
  facet normal -5.320296e-001 -8.467257e-001  -0.000000e+000
    outer loop
      vertex -1.830165e+001 -1.970291e+001  0.000000e+000
      vertex -1.830165e+001 -1.970291e+001  1.000000e+001
      vertex -1.887047e+001 -1.934550e+001  0.000000e+000
    endloop
  endfacet
  facet normal -5.320296e-001 -8.467257e-001  0.000000e+000
    outer loop
      vertex -1.887047e+001 -1.934550e+001  0.000000e+000
      vertex -1.830165e+001 -1.970291e+001  1.000000e+001
      vertex -1.887047e+001 -1.934550e+001  1.000000e+001
    endloop
  endfacet
  facet normal -7.071068e-001 -7.071068e-001  -0.000000e+000
    outer loop
      vertex -1.887047e+001 -1.934550e+001  0.000000e+000
      vertex -1.887047e+001 -1.934550e+001  1.000000e+001
      vertex -1.934550e+001 -1.887047e+001  0.000000e+000
    endloop
  endfacet
  facet normal -7.071068e-001 -7.071068e-001  0.000000e+000
    outer loop
      vertex -1.934550e+001 -1.887047e+001  0.000000e+000
      vertex -1.887047e+001 -1.934550e+001  1.000000e+001
      vertex -1.934550e+001 -1.887047e+001  1.000000e+001
    endloop
  endfacet
  facet normal -8.467257e-001 -5.320296e-001  -0.000000e+000
    outer loop
      vertex -1.934550e+001 -1.887047e+001  0.000000e+000
      vertex -1.934550e+001 -1.887047e+001  1.000000e+001
      vertex -1.970291e+001 -1.830165e+001  0.000000e+000
    endloop
  endfacet
  facet normal -8.467257e-001 -5.320296e-001  0.000000e+000
    outer loop
      vertex -1.970291e+001 -1.830165e+001  0.000000e+000
      vertex -1.934550e+001 -1.887047e+001  1.000000e+001
      vertex -1.970291e+001 -1.830165e+001  1.000000e+001
    endloop
  endfacet
  facet normal -9.438829e-001 -3.302802e-001  -0.000000e+000
    outer loop
      vertex -1.970291e+001 -1.830165e+001  0.000000e+000
      vertex -1.970291e+001 -1.830165e+001  1.000000e+001
      vertex -1.992478e+001 -1.766756e+001  0.000000e+000
    endloop
  endfacet
  facet normal -9.438829e-001 -3.302802e-001  0.000000e+000
    outer loop
      vertex -1.992478e+001 -1.766756e+001  0.000000e+000
      vertex -1.970291e+001 -1.830165e+001  1.000000e+001
      vertex -1.992478e+001 -1.766756e+001  1.000000e+001
    endloop
  endfacet
  facet normal -9.937122e-001 -1.119646e-001  -0.000000e+000
    outer loop
      vertex -1.992478e+001 -1.766756e+001  0.000000e+000
      vertex -1.992478e+001 -1.766756e+001  1.000000e+001
      vertex -2.000000e+001 -1.700000e+001  0.000000e+000
    endloop
  endfacet
  facet normal -9.937122e-001 -1.119646e-001  0.000000e+000
    outer loop
      vertex -2.000000e+001 -1.700000e+001  0.000000e+000
      vertex -1.992478e+001 -1.766756e+001  1.000000e+001
      vertex -2.000000e+001 -1.700000e+001  1.000000e+001
    endloop
  endfacet
  facet normal -1.000000e+000  0.000000e+000  0.000000e+000
    outer loop
      vertex -2.000000e+001  1.700000e+001  1.000000e+001
      vertex -2.000000e+001  1.700000e+001  0.000000e+000
      vertex -2.000000e+001 -1.700000e+001  1.000000e+001
    endloop
  endfacet
  facet normal -1.000000e+000  0.000000e+000  0.000000e+000
    outer loop
      vertex -2.000000e+001 -1.700000e+001  1.000000e+001
      vertex -2.000000e+001  1.700000e+001  0.000000e+000
      vertex -2.000000e+001 -1.700000e+001  0.000000e+000
    endloop
  endfacet
  facet normal -9.937122e-001  1.119646e-001  0.000000e+000
    outer loop
      vertex -2.000000e+001  1.700000e+001  0.000000e+000
      vertex -2.000000e+001  1.700000e+001  1.000000e+001
      vertex -1.992478e+001  1.766756e+001  0.000000e+000
    endloop
  endfacet
  facet normal -9.937122e-001  1.119646e-001  0.000000e+000
    outer loop
      vertex -1.992478e+001  1.766756e+001  0.000000e+000
      vertex -2.000000e+001  1.700000e+001  1.000000e+001
      vertex -1.992478e+001  1.766756e+001  1.000000e+001
    endloop
  endfacet
  facet normal -9.438829e-001  3.302802e-001  0.000000e+000
    outer loop
      vertex -1.992478e+001  1.766756e+001  0.000000e+000
      vertex -1.992478e+001  1.766756e+001  1.000000e+001
      vertex -1.970291e+001  1.830165e+001  0.000000e+000
    endloop
  endfacet
  facet normal -9.438829e-001  3.302802e-001  0.000000e+000
    outer loop
      vertex -1.970291e+001  1.830165e+001  0.000000e+000
      vertex -1.992478e+001  1.766756e+001  1.000000e+001
      vertex -1.970291e+001  1.830165e+001  1.000000e+001
    endloop
  endfacet
  facet normal -8.467257e-001  5.320296e-001  0.000000e+000
    outer loop
      vertex -1.970291e+001  1.830165e+001  0.000000e+000
      vertex -1.970291e+001  1.830165e+001  1.000000e+001
      vertex -1.934550e+001  1.887047e+001  0.000000e+000
    endloop
  endfacet
  facet normal -8.467257e-001  5.320296e-001  0.000000e+000
    outer loop
      vertex -1.934550e+001  1.887047e+001  0.000000e+000
      vertex -1.970291e+001  1.830165e+001  1.000000e+001
      vertex -1.934550e+001  1.887047e+001  1.000000e+001
    endloop
  endfacet
  facet normal -7.071068e-001  7.071068e-001  0.000000e+000
    outer loop
      vertex -1.934550e+001  1.887047e+001  0.000000e+000
      vertex -1.934550e+001  1.887047e+001  1.000000e+001
      vertex -1.887047e+001  1.934550e+001  0.000000e+000
    endloop
  endfacet
  facet normal -7.071068e-001  7.071068e-001  0.000000e+000
    outer loop
      vertex -1.887047e+001  1.934550e+001  0.000000e+000
      vertex -1.934550e+001  1.887047e+001  1.000000e+001
      vertex -1.887047e+001  1.934550e+001  1.000000e+001
    endloop
  endfacet
  facet normal -5.320296e-001  8.467257e-001  0.000000e+000
    outer loop
      vertex -1.887047e+001  1.934550e+001  0.000000e+000
      vertex -1.887047e+001  1.934550e+001  1.000000e+001
      vertex -1.830165e+001  1.970291e+001  0.000000e+000
    endloop
  endfacet
  facet normal -5.320296e-001  8.467257e-001  0.000000e+000
    outer loop
      vertex -1.830165e+001  1.970291e+001  0.000000e+000
      vertex -1.887047e+001  1.934550e+001  1.000000e+001
      vertex -1.830165e+001  1.970291e+001  1.000000e+001
    endloop
  endfacet
  facet normal -3.302802e-001  9.438829e-001  0.000000e+000
    outer loop
      vertex -1.830165e+001  1.970291e+001  0.000000e+000
      vertex -1.830165e+001  1.970291e+001  1.000000e+001
      vertex -1.766756e+001  1.992478e+001  0.000000e+000
    endloop
  endfacet
  facet normal -3.302802e-001  9.438829e-001  0.000000e+000
    outer loop
      vertex -1.766756e+001  1.992478e+001  0.000000e+000
      vertex -1.830165e+001  1.970291e+001  1.000000e+001
      vertex -1.766756e+001  1.992478e+001  1.000000e+001
    endloop
  endfacet
  facet normal -1.119646e-001  9.937122e-001  0.000000e+000
    outer loop
      vertex -1.766756e+001  1.992478e+001  0.000000e+000
      vertex -1.766756e+001  1.992478e+001  1.000000e+001
      vertex -1.700000e+001  2.000000e+001  0.000000e+000
    endloop
  endfacet
  facet normal -1.119646e-001  9.937122e-001  0.000000e+000
    outer loop
      vertex -1.700000e+001  2.000000e+001  0.000000e+000
      vertex -1.766756e+001  1.992478e+001  1.000000e+001
      vertex -1.700000e+001  2.000000e+001  1.000000e+001
    endloop
  endfacet
  facet normal  1.119646e-001  9.937122e-001  0.000000e+000
    outer loop
      vertex  1.700000e+001  2.000000e+001  0.000000e+000
      vertex  1.700000e+001  2.000000e+001  1.000000e+001
      vertex  1.766756e+001  1.992478e+001  0.000000e+000
    endloop
  endfacet
  facet normal  1.119646e-001  9.937122e-001  -0.000000e+000
    outer loop
      vertex  1.766756e+001  1.992478e+001  0.000000e+000
      vertex  1.700000e+001  2.000000e+001  1.000000e+001
      vertex  1.766756e+001  1.992478e+001  1.000000e+001
    endloop
  endfacet
  facet normal  3.302802e-001  9.438829e-001  0.000000e+000
    outer loop
      vertex  1.766756e+001  1.992478e+001  0.000000e+000
      vertex  1.766756e+001  1.992478e+001  1.000000e+001
      vertex  1.830165e+001  1.970291e+001  0.000000e+000
    endloop
  endfacet
  facet normal  3.302802e-001  9.438829e-001  -0.000000e+000
    outer loop
      vertex  1.830165e+001  1.970291e+001  0.000000e+000
      vertex  1.766756e+001  1.992478e+001  1.000000e+001
      vertex  1.830165e+001  1.970291e+001  1.000000e+001
    endloop
  endfacet
  facet normal  5.320296e-001  8.467257e-001  0.000000e+000
    outer loop
      vertex  1.830165e+001  1.970291e+001  0.000000e+000
      vertex  1.830165e+001  1.970291e+001  1.000000e+001
      vertex  1.887047e+001  1.934550e+001  0.000000e+000
    endloop
  endfacet
  facet normal  5.320296e-001  8.467257e-001  -0.000000e+000
    outer loop
      vertex  1.887047e+001  1.934550e+001  0.000000e+000
      vertex  1.830165e+001  1.970291e+001  1.000000e+001
      vertex  1.887047e+001  1.934550e+001  1.000000e+001
    endloop
  endfacet
  facet normal  7.071068e-001  7.071068e-001  0.000000e+000
    outer loop
      vertex  1.887047e+001  1.934550e+001  0.000000e+000
      vertex  1.887047e+001  1.934550e+001  1.000000e+001
      vertex  1.934550e+001  1.887047e+001  0.000000e+000
    endloop
  endfacet
  facet normal  7.071068e-001  7.071068e-001  -0.000000e+000
    outer loop
      vertex  1.934550e+001  1.887047e+001  0.000000e+000
      vertex  1.887047e+001  1.934550e+001  1.000000e+001
      vertex  1.934550e+001  1.887047e+001  1.000000e+001
    endloop
  endfacet
  facet normal  8.467257e-001  5.320296e-001  0.000000e+000
    outer loop
      vertex  1.934550e+001  1.887047e+001  0.000000e+000
      vertex  1.934550e+001  1.887047e+001  1.000000e+001
      vertex  1.970291e+001  1.830165e+001  0.000000e+000
    endloop
  endfacet
  facet normal  8.467257e-001  5.320296e-001  -0.000000e+000
    outer loop
      vertex  1.970291e+001  1.830165e+001  0.000000e+000
      vertex  1.934550e+001  1.887047e+001  1.000000e+001
      vertex  1.970291e+001  1.830165e+001  1.000000e+001
    endloop
  endfacet
  facet normal  9.438829e-001  3.302802e-001  0.000000e+000
    outer loop
      vertex  1.970291e+001  1.830165e+001  0.000000e+000
      vertex  1.970291e+001  1.830165e+001  1.000000e+001
      vertex  1.992478e+001  1.766756e+001  0.000000e+000
    endloop
  endfacet
  facet normal  9.438829e-001  3.302802e-001  -0.000000e+000
    outer loop
      vertex  1.992478e+001  1.766756e+001  0.000000e+000
      vertex  1.970291e+001  1.830165e+001  1.000000e+001
      vertex  1.992478e+001  1.766756e+001  1.000000e+001
    endloop
  endfacet
  facet normal  9.937122e-001  1.119646e-001  0.000000e+000
    outer loop
      vertex  1.992478e+001  1.766756e+001  0.000000e+000
      vertex  1.992478e+001  1.766756e+001  1.000000e+001
      vertex  2.000000e+001  1.700000e+001  0.000000e+000
    endloop
  endfacet
  facet normal  9.937122e-001  1.119646e-001  -0.000000e+000
    outer loop
      vertex  2.000000e+001  1.700000e+001  0.000000e+000
      vertex  1.992478e+001  1.766756e+001  1.000000e+001
      vertex  2.000000e+001  1.700000e+001  1.000000e+001
    endloop
  endfacet
  facet normal  1.000000e+000  0.000000e+000  0.000000e+000
    outer loop
      vertex  2.000000e+001 -1.700000e+001  1.000000e+001
      vertex  2.000000e+001 -1.700000e+001  0.000000e+000
      vertex  2.000000e+001  1.700000e+001  1.000000e+001
    endloop
  endfacet
  facet normal  1.000000e+000  0.000000e+000  0.000000e+000
    outer loop
      vertex  2.000000e+001  1.700000e+001  1.000000e+001
      vertex  2.000000e+001 -1.700000e+001  0.000000e+000
      vertex  2.000000e+001  1.700000e+001  0.000000e+000
    endloop
  endfacet
  facet normal  9.937122e-001 -1.119646e-001  0.000000e+000
    outer loop
      vertex  2.000000e+001 -1.700000e+001  0.000000e+000
      vertex  2.000000e+001 -1.700000e+001  1.000000e+001
      vertex  1.992478e+001 -1.766756e+001  0.000000e+000
    endloop
  endfacet
  facet normal  9.937122e-001 -1.119646e-001  0.000000e+000
    outer loop
      vertex  1.992478e+001 -1.766756e+001  0.000000e+000
      vertex  2.000000e+001 -1.700000e+001  1.000000e+001
      vertex  1.992478e+001 -1.766756e+001  1.000000e+001
    endloop
  endfacet
  facet normal  9.438829e-001 -3.302802e-001  0.000000e+000
    outer loop
      vertex  1.992478e+001 -1.766756e+001  0.000000e+000
      vertex  1.992478e+001 -1.766756e+001  1.000000e+001
      vertex  1.970291e+001 -1.830165e+001  0.000000e+000
    endloop
  endfacet
  facet normal  9.438829e-001 -3.302802e-001  0.000000e+000
    outer loop
      vertex  1.970291e+001 -1.830165e+001  0.000000e+000
      vertex  1.992478e+001 -1.766756e+001  1.000000e+001
      vertex  1.970291e+001 -1.830165e+001  1.000000e+001
    endloop
  endfacet
  facet normal  8.467257e-001 -5.320296e-001  0.000000e+000
    outer loop
      vertex  1.970291e+001 -1.830165e+001  0.000000e+000
      vertex  1.970291e+001 -1.830165e+001  1.000000e+001
      vertex  1.934550e+001 -1.887047e+001  0.000000e+000
    endloop
  endfacet
  facet normal  8.467257e-001 -5.320296e-001  0.000000e+000
    outer loop
      vertex  1.934550e+001 -1.887047e+001  0.000000e+000
      vertex  1.970291e+001 -1.830165e+001  1.000000e+001
      vertex  1.934550e+001 -1.887047e+001  1.000000e+001
    endloop
  endfacet
  facet normal  7.071068e-001 -7.071068e-001  0.000000e+000
    outer loop
      vertex  1.934550e+001 -1.887047e+001  0.000000e+000
      vertex  1.934550e+001 -1.887047e+001  1.000000e+001
      vertex  1.887047e+001 -1.934550e+001  0.000000e+000
    endloop
  endfacet
  facet normal  7.071068e-001 -7.071068e-001  0.000000e+000
    outer loop
      vertex  1.887047e+001 -1.934550e+001  0.000000e+000
      vertex  1.934550e+001 -1.887047e+001  1.000000e+001
      vertex  1.887047e+001 -1.934550e+001  1.000000e+001
    endloop
  endfacet
  facet normal  5.320296e-001 -8.467257e-001  0.000000e+000
    outer loop
      vertex  1.887047e+001 -1.934550e+001  0.000000e+000
      vertex  1.887047e+001 -1.934550e+001  1.000000e+001
      vertex  1.830165e+001 -1.970291e+001  0.000000e+000
    endloop
  endfacet
  facet normal  5.320296e-001 -8.467257e-001  0.000000e+000
    outer loop
      vertex  1.830165e+001 -1.970291e+001  0.000000e+000
      vertex  1.887047e+001 -1.934550e+001  1.000000e+001
      vertex  1.830165e+001 -1.970291e+001  1.000000e+001
    endloop
  endfacet
  facet normal  3.302802e-001 -9.438829e-001  0.000000e+000
    outer loop
      vertex  1.830165e+001 -1.970291e+001  0.000000e+000
      vertex  1.830165e+001 -1.970291e+001  1.000000e+001
      vertex  1.766756e+001 -1.992478e+001  0.000000e+000
    endloop
  endfacet
  facet normal  3.302802e-001 -9.438829e-001  0.000000e+000
    outer loop
      vertex  1.766756e+001 -1.992478e+001  0.000000e+000
      vertex  1.830165e+001 -1.970291e+001  1.000000e+001
      vertex  1.766756e+001 -1.992478e+001  1.000000e+001
    endloop
  endfacet
  facet normal  1.119646e-001 -9.937122e-001  0.000000e+000
    outer loop
      vertex  1.766756e+001 -1.992478e+001  0.000000e+000
      vertex  1.766756e+001 -1.992478e+001  1.000000e+001
      vertex  1.700000e+001 -2.000000e+001  0.000000e+000
    endloop
  endfacet
  facet normal  1.119646e-001 -9.937122e-001  0.000000e+000
    outer loop
      vertex  1.700000e+001 -2.000000e+001  0.000000e+000
      vertex  1.766756e+001 -1.992478e+001  1.000000e+001
      vertex  1.700000e+001 -2.000000e+001  1.000000e+001
    endloop
  endfacet
  facet normal  0.000000e+000 -1.000000e+000  0.000000e+000
    outer loop
      vertex -1.700000e+001 -2.000000e+001  1.000000e+001
      vertex -1.700000e+001 -2.000000e+001  0.000000e+000
      vertex  1.700000e+001 -2.000000e+001  1.000000e+001
    endloop
  endfacet
  facet normal  0.000000e+000 -1.000000e+000  -0.000000e+000
    outer loop
      vertex  1.700000e+001 -2.000000e+001  1.000000e+001
      vertex -1.700000e+001 -2.000000e+001  0.000000e+000
      vertex  1.700000e+001 -2.000000e+001  0.000000e+000
    endloop
  endfacet
endsolid CATIA STL
